<?xml version="1.0" encoding="utf-8"?>
<!-- Uploaded to: SVG Repo, www.svgrepo.com, Generator: SVG Repo Mixer Tools -->
<svg width="800px" height="800px" viewBox="0 -39.5 382.234 382.234" xmlns="http://www.w3.org/2000/svg"><defs><style>.a{fill:#ffffff;}.b{fill:#f2635f;}.c{fill:#bfbcbb;}.d{fill:#6dbf6b;}.e{fill:#211715;}.f{fill:#7a7473;}.g{fill:#79c6e0;}.h{fill:#bd957a;}.i{fill:#f4b3b3;}</style></defs><path class="a" d="M217.3,214.972c-14.61-.046-111.976-.088-123.2-.108-9.393,26.787-20.467,59.9-28.991,86.371,28.15-.036,92.261-.123,128.771-.147,36.509.024,100.617.111,128.774.142-8.531-26.463-19.6-59.573-29-86.359-12.736.031-34.444.1-54.753.157"/><path class="b" d="M200.533,238.065c-4.213.015-19.616.116-22.851.118,0,1.084-.162,3.666-.162,6.246-1.14,0-3.712.044-4.985.044-.177,1.944-.424,7.238-.565,9.11,3.35,0,25.239.014,29.517,0C201.3,250.014,200.675,240.982,200.533,238.065Z"/><path class="c" d="M237.252,269.658c-.851-.01-7.745-.055-9.561-.055.111,1.888.667,9.333.945,12.944,2.055,0,7.861-.111,10.055-.111C238.358,279.241,237.525,271.991,237.252,269.658Z"/><path class="c" d="M236.538,245.742c-.016-.12-.032-.237-.047-.349-1.61,0-14.174.079-16.633.08.13,1.815.389,6.186.623,8.487,2.537-.006,15.69-.163,17.071-.163h.169C237.412,251.283,236.836,247.886,236.538,245.742Z"/><path class="c" d="M218.429,269.658c-1.248-.01-12.689.037-15.352.037,0,1.837.1,9.309.125,12.7,3.626,0,10.423.01,15.952.01C218.923,279.032,218.439,269.834,218.429,269.658Z"/><path class="c" d="M266.568,269.479c-1.07-.013-12.7.216-15.266.216.2,1.519,1.5,10.046,1.917,12.7,4.807.01,11.617.01,15.935,0C268.747,280.306,266.876,271.01,266.568,269.479Z"/><path class="c" d="M156.49,242.717l.027-.361c-.994,0-7.223-.062-8.048-.062h-.156c-.286,2.2-.859,6.332-1.558,11.355l-.032.23h.135c.688,0,7.274.081,8.482.081h.269l.011-.131C155.833,251.267,156.316,245.041,156.49,242.717Z"/><path class="c" d="M144.774,270.189c.019-.139.039-.278.058-.416,3.173,0,24.081-.028,28.48-.041-.01.131-.01.222-.01.222,0,1.942-.47,10.32-.614,13.447-3.456.011-26.1,0-29.5,0C143.658,279.378,144.162,274.674,144.774,270.189Z"/><path class="c" d="M131.137,238.544c.045-.3.082-.563.11-.775-4.935.015-27.148.047-30.938.05-.882,3.322-3.727,12.274-4.648,16.134,3.926,0,27.876.015,32.889,0C129.083,250.679,130.626,241.957,131.137,238.544Z"/><path class="d" d="M251.131,261.756l35.145,0c4.487,0,7.316-2.669,7.841-5.916,1.352-8.352-.7-15.74-9.481-22.815-8.6-6.927-25.8-7.2-36.148-5.333-2.606.471-5.8,3.012-5.482,4.963,1.407,8.741,2.963,19.482,4.37,27.556.146.837,1.608,1.523,2.763,1.535C250.528,261.753,250.884,261.756,251.131,261.756Z"/><path class="a" d="M102.805,278.416q-.354-.4-.688-.782c1.049,0,3.252.08,3.855.064.6-2.606,1.376-5.882,1.66-7.258,2.938,0,9.5-.06,12.754-.06-.347,2.257-.746,4.731-1.053,7.256,1.8,0,2.144-.1,3.969-.1-2.975,2.42-8.41,6.745-12.3,9.68C108.747,285.037,105.421,281.384,102.805,278.416Z"/><path class="e" d="M90.713,263.876q3.848.012,7.694.008l15.929.006q11.13,0,22.258,0l26.363,0,28.538,0,28.7,0,26.839,0,22.964,0,17.133,0q4.561,0,9.124,0h.794c2.574.008,2.578-3.992,0-4-2.3-.007-4.595,0-6.893,0l-15.3,0-21.8,0-26.082,0-28.43,0-28.762,0-27.078,0-23.376,0-17.721-.006q-4.941,0-9.883-.008l-1.005,0c-2.574-.008-2.578,3.992,0,4Z"/><path class="e" d="M217.3,212.972q-8.393-.027-16.786-.026-14.022-.015-28.045-.025l-32.023-.022-28.33-.019q-8.517-.006-17.035-.014l-.985,0a2.057,2.057,0,0,0-1.928,1.468q-11.88,33.885-23.024,68.023-3.009,9.166-5.968,18.348a2.018,2.018,0,0,0,1.929,2.532l45.626-.059q27.911-.034,55.82-.064,24.087-.026,48.174-.007,27.751.027,55.5.062,24.057.029,48.113.058l4.308,0a2.018,2.018,0,0,0,1.929-2.532Q313.609,266.67,302,232.849q-3.179-9.264-6.416-18.509a2.064,2.064,0,0,0-1.929-1.469q-27.376.066-54.753.157c-2.574.007-2.579,4.007,0,4q27.377-.076,54.753-.157l-1.928-1.468q11.877,33.882,23.025,68.015,3.011,9.164,5.972,18.344l1.928-2.532q-22.815-.025-45.631-.055-27.909-.033-55.819-.063-24.085-.026-48.173-.007-27.753.027-55.5.063l-48.11.061-4.307.006,1.928,2.532Q78,267.731,89.611,233.907q3.178-9.267,6.416-18.511L94.1,216.864q7.6.013,15.191.014l27.226.019q15.987.009,31.974.021l29.057.024q9.264.011,18.528.026l1.228,0c2.574.008,2.578-3.992,0-4Z"/><path class="e" d="M191.45,262.065q.2,13.63-.148,27.26c-.067,2.575,3.933,2.573,4,0q.355-13.627.148-27.26c-.038-2.571-4.038-2.579-4,0Z"/><path class="e" d="M240.557,229.416c1.756,10.993,3.371,22.01,5.01,33.02a2.012,2.012,0,0,0,2.46,1.4,2.05,2.05,0,0,0,1.4-2.46c-1.639-11.01-3.254-22.027-5.01-33.02a2.015,2.015,0,0,0-2.46-1.4,2.049,2.049,0,0,0-1.4,2.46Z"/><path class="e" d="M272.54,262.464q2.726,11.766,5.388,23.546c.342,1.527.695,3.053,1,4.587.5,2.522,4.36,1.455,3.857-1.063-1.6-8-3.575-15.932-5.406-23.878q-.49-2.128-.982-4.256c-.581-2.507-4.439-1.445-3.858,1.064Z"/><path class="e" d="M134.055,290.745c1.047-7.508,2.226-15,3.355-22.494q2.382-15.822,4.758-31.645c.491-3.286,1-6.57,1.452-9.861a2.068,2.068,0,0,0-1.4-2.46,2.014,2.014,0,0,0-2.46,1.4c-1.06,7.637-2.259,15.256-3.406,22.881q-2.371,15.768-4.744,31.536c-.478,3.193-.969,6.385-1.416,9.583a2.068,2.068,0,0,0,1.4,2.46,2.015,2.015,0,0,0,2.461-1.4Z"/><path class="e" d="M104.219,277l-.688-.783-1.414,3.415c1.285,0,2.57.083,3.855.064a2.034,2.034,0,0,0,1.928-1.469c.556-2.418,1.153-4.829,1.66-7.258l-1.928,1.469c4.251,0,8.5-.058,12.754-.06l-1.928-2.531c-.4,2.592-.8,5.183-1.125,7.787a2.016,2.016,0,0,0,2,2c1.324-.007,2.645-.09,3.969-.1l-1.414-3.414c-3.916,3.182-7.869,6.324-11.894,9.367l2.424.313c-2.873-2.8-5.548-5.8-8.2-8.805-1.707-1.934-4.527.9-2.829,2.828,2.652,3,5.327,6.01,8.2,8.806a2.02,2.02,0,0,0,2.423.312c4.3-3.249,8.523-6.595,12.7-9.993,1.39-1.13.2-3.42-1.415-3.414-1.324,0-2.645.088-3.969.1l2,2c.278-2.248.637-4.485.982-6.724a2.034,2.034,0,0,0-1.929-2.532c-4.251,0-8.5.058-12.754.06a2.025,2.025,0,0,0-1.929,1.468c-.507,2.429-1.1,4.84-1.66,7.258l1.929-1.468c-1.285.019-2.57-.059-3.855-.064a2.024,2.024,0,0,0-1.414,3.414l.687.782C103.1,281.766,105.915,278.928,104.219,277Z"/><path class="e" d="M218.429,267.658c-5.117-.038-10.235.037-15.352.037a2.028,2.028,0,0,0-2,2c0,4.233.091,8.467.125,12.7a2.03,2.03,0,0,0,2,2q7.976,0,15.952.01a2.017,2.017,0,0,0,2-2c-.289-4.246-.487-8.5-.725-12.747a2.044,2.044,0,0,0-2-2,2.018,2.018,0,0,0-2,2c.238,4.249.436,8.5.725,12.747l2-2q-7.976,0-15.952-.01l2,2c-.034-4.233-.122-8.467-.125-12.7l-2,2c5.117,0,10.235-.075,15.352-.037C221,271.677,221.006,267.677,218.429,267.658Z"/><path class="e" d="M237.252,267.658q-4.779-.057-9.561-.055a2.018,2.018,0,0,0-2,2c.257,4.317.613,8.631.945,12.944a2.04,2.04,0,0,0,2,2c3.352,0,6.7-.109,10.055-.111a2.012,2.012,0,0,0,2-2c-.446-4.263-.942-8.521-1.439-12.778a2.051,2.051,0,0,0-2-2c-.979.044-2.13.887-2,2,.5,4.257.993,8.515,1.439,12.778l2-2c-3.352,0-6.7.108-10.055.111l2,2c-.332-4.313-.688-8.627-.945-12.944l-2,2q4.78,0,9.561.055a2,2,0,0,0,0-4Z"/><path class="e" d="M266.568,267.479c-5.087-.045-10.178.212-15.266.216a2.009,2.009,0,0,0-2,2c.574,4.421,1.3,8.827,1.988,13.231a2.009,2.009,0,0,0,1.929,1.469q7.968.017,15.935,0a2.029,2.029,0,0,0,1.929-2.532c-.842-4.309-1.72-8.611-2.586-12.915a2,2,0,0,0-3.857,1.063c.866,4.3,1.744,8.606,2.586,12.915l1.928-2.531q-7.968.018-15.935,0l1.929,1.468q-.523-3.332-1.026-6.666-.27-1.781-.535-3.561-.106-.709-.209-1.42l-.078-.543-.027-.2c-.055-.372.069.525.029.221l-2,2c5.088,0,10.179-.261,15.266-.216C269.143,271.5,269.145,267.5,266.568,267.479Z"/><path class="e" d="M238.467,245.211l.024.182a2.053,2.053,0,0,0-2-2c-5.544,0-11.089.076-16.633.08a2.016,2.016,0,0,0-2,2c.2,2.829.341,5.664.623,8.487a2.047,2.047,0,0,0,2,2c5.747-.016,11.494-.17,17.24-.163a2.008,2.008,0,0,0,2-2c-.358-2.871-.852-5.721-1.254-8.586a2.012,2.012,0,0,0-2.46-1.4,2.053,2.053,0,0,0-1.4,2.46c.352,2.51.8,5.008,1.111,7.523l2-2c-5.746-.007-11.493.147-17.24.163l2,2c-.282-2.823-.423-5.658-.623-8.487l-2,2c5.544,0,11.089-.078,16.633-.08l-2-2c.039.294.079.587.119.881a2.012,2.012,0,0,0,2.46,1.4A2.053,2.053,0,0,0,238.467,245.211Z"/><path class="e" d="M146.7,270.721l.057-.417-1.928,1.469q14.239,0,28.48-.041l-2-2c-.238,4.553-.412,9.115-.624,13.669l2-2c-8.284.024-16.569,0-24.853,0h-4.644l2,2c.489-4.228.941-8.46,1.512-12.678a2.069,2.069,0,0,0-1.4-2.46,2.013,2.013,0,0,0-2.46,1.4c-.62,4.572-1.124,9.158-1.655,13.741a2.017,2.017,0,0,0,2,2q12.411,0,24.821.006,2.339,0,4.676,0a2.04,2.04,0,0,0,2-2c.212-4.554.386-9.116.624-13.669a2.023,2.023,0,0,0-2-2q-14.24.041-28.48.041a2.016,2.016,0,0,0-1.929,1.468l-.057.417a2.07,2.07,0,0,0,1.4,2.46A2.014,2.014,0,0,0,146.7,270.721Z"/><path class="e" d="M133.065,239.076c.039-.258.076-.517.11-.775a2.035,2.035,0,0,0-1.928-2.532q-13.068.039-26.137.044l-4.8.006a2.037,2.037,0,0,0-1.929,1.468c-1.447,5.405-3.332,10.693-4.647,16.135a2.023,2.023,0,0,0,1.928,2.531q13.584,0,27.169.006,2.86,0,5.72-.006a2.018,2.018,0,0,0,1.928-1.468c.841-5.14,1.811-10.259,2.587-15.409a2.066,2.066,0,0,0-1.4-2.461,2.017,2.017,0,0,0-2.461,1.4c-.776,5.15-1.746,10.27-2.587,15.41l1.929-1.469c-9.244.027-18.489.006-27.733,0l-5.156,0,1.929,2.532c1.315-5.441,3.2-10.729,4.647-16.135l-1.928,1.469q12.774-.009,25.547-.038,2.7,0,5.391-.012l-1.929-2.532q-.051.389-.11.775a2.066,2.066,0,0,0,1.4,2.46A2.014,2.014,0,0,0,133.065,239.076Z"/><path class="e" d="M280.3,284.174c3.451,0,6.9.009,10.352,0a2,2,0,0,0,0-4c-3.451.009-6.9,0-10.352,0a2,2,0,0,0,0,4Z"/><path class="e" d="M79.616,293.213c3.451,0,6.9.009,10.353,0a2,2,0,0,0,0-4c-3.451.009-6.9,0-10.353,0a2,2,0,1,0,0,4Z"/><path class="e" d="M181,293.211c8.276,0,16.552.023,24.828,0,2.574-.007,2.579-4.007,0-4-8.276.023-16.552,0-24.828,0-2.573,0-2.578,4,0,4Z"/><path class="e" d="M200.533,236.065c-7.617.027-15.234.111-22.851.118a2.031,2.031,0,0,0-2,2c-.018,2.083-.155,4.162-.162,6.246l2-2c-1.662,0-3.323.04-4.985.044a2.049,2.049,0,0,0-2,2c-.265,3.031-.343,6.076-.565,9.11a2.02,2.02,0,0,0,2,2q12.206,0,24.413.006c1.7,0,3.4,0,5.1-.006a2.02,2.02,0,0,0,2-2c-.279-5.175-.7-10.342-.954-15.518-.128-2.561-4.129-2.577-4,0,.258,5.176.675,10.343.954,15.518l2-2c-8.3.027-16.6,0-24.9,0l-4.621,0,2,2c.222-3.034.3-6.079.565-9.11l-2,2c1.662,0,3.323-.041,4.985-.044a2.032,2.032,0,0,0,2-2c.007-2.084.144-4.163.162-6.246l-2,2c7.617-.007,15.234-.091,22.851-.118C203.106,240.057,203.111,236.056,200.533,236.065Z"/><path class="e" d="M129.525,227.735q12.931,0,25.865-.029,17.865-.024,35.729-.056,6.508-.014,13.017-.029c2.573-.008,2.578-4.008,0-4q-13.895.042-27.787.054-17.6.028-35.2.05-5.814.006-11.628.01c-2.574,0-2.579,4,0,4Z"/><path class="e" d="M158.49,242.717l.027-.361a2.02,2.02,0,0,0-2-2c-2.735,0-5.47-.062-8.2-.062a2.059,2.059,0,0,0-2,2q-.061.471-.125.944c-.013.1-.089.619-.041.308s-.034.253-.048.355q-.186,1.373-.375,2.747-.462,3.35-.93,6.7a2.1,2.1,0,0,0,.358,1.743,1.956,1.956,0,0,0,1.571.788c2.962,0,5.924.081,8.886.081a2.048,2.048,0,0,0,2-2q.468-5.619.881-11.243a2.01,2.01,0,0,0-2-2,2.049,2.049,0,0,0-2,2q-.42,5.622-.881,11.243l2-2c-2.962,0-5.924-.081-8.886-.081l1.928,2.532c.563-4.038,1.136-8.075,1.662-12.117l-2,2c2.734,0,5.469.066,8.2.062l-2-2-.027.361a2.009,2.009,0,0,0,2,2A2.049,2.049,0,0,0,158.49,242.717Z"/><path class="e" d="M284.63,234.6a19.814,19.814,0,0,1,7.488,15.313c.022,2.573,4.022,2.579,4,0a24.03,24.03,0,0,0-9.469-18.767,2.011,2.011,0,0,0-2.736.717,2.052,2.052,0,0,0,.717,2.737Z"/><path class="e" d="M108.179,237.293c-1.262,5.264-2.419,10.555-3.62,15.833a2.045,2.045,0,0,0,1.4,2.461,2.023,2.023,0,0,0,2.46-1.4c1.2-5.279,2.358-10.57,3.62-15.834a2,2,0,1,0-3.857-1.063Z"/><path class="e" d="M118.633,237.608c-.92,5.183-1.938,10.351-2.944,15.518a2.052,2.052,0,0,0,1.4,2.461,2.02,2.02,0,0,0,2.461-1.4c1.006-5.167,2.024-10.336,2.944-15.519a2.056,2.056,0,0,0-1.4-2.46,2.017,2.017,0,0,0-2.46,1.4Z"/><path class="a" d="M216.415,216.04c-1.3.626-2.539,1.26-3.938,2.026a3.9,3.9,0,0,0-1.3,1.4,2.73,2.73,0,0,0-.053,2.025,4.082,4.082,0,0,0,4.056,2.393c-2.308,3.864-5.354,9.255-7.438,13.344-.955,1.873-.649,2.878.735,4.163,1.158,1.075,3.176.23,3.962-.6a65.045,65.045,0,0,0,6.067-7.139c2.738,1.851,3.007,2.692,6.427,2.4.286-.024,3.363.968,4.385.812a3.058,3.058,0,0,0,2.68-2.436c1.905-4.869,2.026-8.7,2.735-13.883,0,0,.082-1.139.183-2.494-2.166-.765-5.448-1.9-8.672-2.981-1.562-.525-3.108-1.038-4.5-1.491C219.63,214.537,217.981,215.284,216.415,216.04Z"/><path class="a" d="M215.7,107.466c-2.712.381-3.73,3.02-4.92,3.2-5.778.852-8.993,1.338-11.868.685-2.049-.466-7.09,1.055-8.827,1.757-2.7,1.091-3.667,1.481-4.185,1.74s-4.859,2.131-5.339,2.46a3.506,3.506,0,0,0-2.791-.931c-.041,0-.082.01-.123.016a3.306,3.306,0,0,0-2.39,1.56,4.589,4.589,0,0,0-.49,1.863,13.635,13.635,0,0,0,1.43,7.343,8.893,8.893,0,0,0,2.318,2.983,5.646,5.646,0,0,0,3.786,1.269l.013.09c1.1,7.649,5.054,15.632,13.4,19a21.633,21.633,0,0,0,4.493,1.267,45.488,45.488,0,0,0,16.1-.5l1.43-.286c.327-.1.664-.215.991-.337,5.933-2.237,11.662-8.8,13.061-19.19l.01-.068a5.584,5.584,0,0,0,4.024-1.25,8.756,8.756,0,0,0,2.318-2.983,13.626,13.626,0,0,0,1.43-7.343,4.421,4.421,0,0,0-.49-1.863,3.306,3.306,0,0,0-2.39-1.56,2.928,2.928,0,0,0-.5-.037,3.319,3.319,0,0,0-2.67,1.256,15.337,15.337,0,0,0-4.565-3.857,9.938,9.938,0,0,1-5.858-6.883c-2.007.013-5.223.655-7.118.569C215.876,107.443,215.785,107.453,215.7,107.466Z"/><path class="a" d="M219.683,147.515l-30.69-.539c-5.553,1.285-12.526,3.354-16.77,7.013-6.84,5.9-6.921,21.877-7.717,30.946-.189,2.16,1.114,5.409,2.069,7l.665,1.109c12,.021,46.135.031,59.66.04-1.969,7.341-4.686,12.691-7.544,19.732,1.879.59,4.36,1.407,6.884,2.255,5.219,1.751,10.589,3.641,11.137,3.877.128-.354.7-1.783,1.525-3.92,2.309-5.993,6.529-17.43,7.9-25.356,1.085-6.272,1.7-15.841.2-22.027-1.976-8.248-8.119-13.521-14.806-17.1-2.305-1.13-4.68-2.029-7-2.933Z"/><path class="a" d="M192.938,187.85a9.371,9.371,0,0,0-1-.851c-1.37-1.023-4.1-3.213-7.675-2.9-4.713.418-11.622,2.533-13.535,3.6a4.024,4.024,0,0,0-2.3,4.491c.6,2.478,1.214,4.461,2.538,5.922.338.374,1.571,1.329,2.6,1.016a4.963,4.963,0,0,0,2.049-1.378l.488-.732c.24.892.544,1.927.908,3.014a2.976,2.976,0,0,0,3.242,2.061,2.443,2.443,0,0,0,2.037-1.615c.184.258.306.427.306.427a2.826,2.826,0,0,0,3.1,1.727,3.132,3.132,0,0,0,2.88-2.815c0-.207-.008-.419-.015-.634.187.4.292.621.292.621a2.868,2.868,0,0,0,3.136,1.3,3.131,3.131,0,0,0,2.115-1.964c.8-1.9.568-5.183.363-7.553A5.224,5.224,0,0,0,192.938,187.85Z"/><path class="f" d="M179.428,93.712c3.391-6.744,11.045-14.765,27.638-14.765,29.633,0,32.057,24.945,30.99,32.2l-.34,5.561a3.417,3.417,0,0,0-1.036-.323,2.928,2.928,0,0,0-.5-.037,3.319,3.319,0,0,0-2.67,1.256,15.337,15.337,0,0,0-4.565-3.857,9.938,9.938,0,0,1-5.858-6.883c-2.007.013-5.223.655-7.118.569-2.92.234-3.965,3.044-5.194,3.225-5.778.852-8.993,1.338-11.868.685-2.049-.466-7.09,1.055-8.827,1.757-2.7,1.091-3.667,1.481-4.185,1.74s-4.859,2.131-5.339,2.46a3.484,3.484,0,0,0-2.79-.926l-.977-5.227A31.98,31.98,0,0,1,178.5,95.78C178.764,95.112,179.072,94.419,179.428,93.712Z"/><path class="e" d="M184.65,182.847c-.749-4.273-1.573-8.535-2.27-12.817a2.008,2.008,0,0,0-2.461-1.4,2.059,2.059,0,0,0-1.4,2.46c.7,4.282,1.521,8.544,2.27,12.817a2.009,2.009,0,0,0,2.46,1.4,2.055,2.055,0,0,0,1.4-2.46Z"/><path class="e" d="M188.462,145.047c-7.853,1.831-17.311,4.489-21.191,12.282-3.495,7.023-3.888,15.352-4.424,23.039a33.913,33.913,0,0,0-.307,5.837,17.311,17.311,0,0,0,2.308,6.74c1.295,2.223,4.753.212,3.454-2.019a12.91,12.91,0,0,1-1.791-4.983,28.388,28.388,0,0,1,.272-4.662c.246-3.521.475-7.05.951-10.55A41.728,41.728,0,0,1,170.2,160.5a13.556,13.556,0,0,1,6-6.869c4.082-2.385,8.75-3.659,13.322-4.725,2.506-.584,1.445-4.442-1.063-3.857Z"/><path class="e" d="M173.562,194.977c.265,1.344.623,2.672,1.015,3.984a11.67,11.67,0,0,0,1.007,2.725,4.886,4.886,0,0,0,2.088,1.929,4.789,4.789,0,0,0,5.609-.974,4.639,4.639,0,0,0,1.058-2.024,7.536,7.536,0,0,0-.016-2.3c-.147-1.6-.268-3.217-.517-4.811a2,2,0,0,0-.919-1.2,2,2,0,0,0-2.737.718,2.308,2.308,0,0,0-.2,1.541c.013.083.024.167.037.25-.122-.781-.043-.322-.02-.138.029.239.055.479.08.719.065.617.122,1.235.179,1.853.074.8.193,1.607.222,2.408,0,.053,0,.108,0,.161.012.206.141-.647.028-.242-.023.082-.041.164-.068.245-.145.443.2-.35.053-.113-.061.1-.117.2-.175.3-.195.33.341-.354.055-.08-.06.058-.4.347-.09.108s-.128.036-.194.09c.309-.254.384-.132.151-.072-.069.018-.137.04-.206.056-.448.1.443-.015-.055,0-.077,0-.643-.033-.26.006.326.032.076.006-.011-.015s-.175-.052-.263-.076c-.366-.1.341.193.133.057-.057-.038-.124-.066-.184-.1s-.115-.079-.175-.113c-.21-.117.323.3.16.122-.09-.095-.2-.2-.291-.289-.177-.159.239.373.122.166-.05-.088-.115-.168-.166-.255-.038-.065-.266-.522-.1-.17.15.315.031.054,0-.024-.033-.1-.066-.2-.1-.3q-.211-.648-.406-1.3c-.383-1.289-.733-2.594-.994-3.914a2.011,2.011,0,0,0-2.46-1.4,2.05,2.05,0,0,0-1.4,2.46Z"/><path class="e" d="M180.872,201.919a5.032,5.032,0,0,0,2.768,2.481,5.582,5.582,0,0,0,4.3-.386,5.312,5.312,0,0,0,2.388-2.843,7.812,7.812,0,0,0,.184-3.249c-.066-1.242-.157-2.484-.292-3.72a2.171,2.171,0,0,0-.586-1.414,2,2,0,0,0-3.414,1.414c.133,1.213.222,2.431.288,3.648.037.674.055,1.347.074,2.02.011.375.12-.54.039-.255-.024.084-.039.17-.065.254-.073.24-.238.308.071-.133-.051.073-.082.172-.126.251s-.1.168-.154.253c-.167.273.367-.422.04-.053-.083.094-.175.176-.264.264-.228.228.447-.293.017-.018a3.155,3.155,0,0,0-.358.2l.283-.12c-.068.026-.137.05-.207.071s-.144.04-.218.057q-.317.06.184-.013a2.391,2.391,0,0,0-.536.028c-.085,0-.169,0-.254-.008q-.333-.03.181.031a2.937,2.937,0,0,0-.416-.1c-.356-.088.4.222.117.052-.1-.061-.207-.135-.313-.193.5.269.229.185.07.02s-.266-.456.03.063c-.119-.209-.261-.4-.376-.617a2.017,2.017,0,0,0-2.736-.717,2.042,2.042,0,0,0-.718,2.736Z"/><path class="e" d="M187.131,200.819a4.934,4.934,0,0,0,6.542,1.765c2.348-1.356,2.906-4.158,2.985-6.654.076-2.38.095-5.283-.9-7.49-.894-1.989-2.9-3.381-4.709-4.5a11.505,11.505,0,0,0-7.285-1.79,47.716,47.716,0,0,0-7.507,1.482c-3.859,1.055-9.808,2.5-9.94,7.494a13.17,13.17,0,0,0,1.109,4.765,10.6,10.6,0,0,0,2.121,3.638,4.9,4.9,0,0,0,7.482-.362c1.616-1.977-1.2-4.824-2.829-2.829-.917,1.122-1.5.952-2.243-.2a9.15,9.15,0,0,1-.992-2.227,7.533,7.533,0,0,1-.648-2.783,2.12,2.12,0,0,1,.823-1.322,6.128,6.128,0,0,1,1.375-.752,39.948,39.948,0,0,1,4.281-1.417c1.728-.488,3.478-.91,5.245-1.226a10.122,10.122,0,0,1,4.9-.014,12.324,12.324,0,0,1,3.641,2.073,4.043,4.043,0,0,1,1.888,3.121,21.167,21.167,0,0,1,.061,5.8c-.1.583-.312,1.464-.867,1.735a.98.98,0,0,1-1.081-.329c-1.271-2.239-4.728-.226-3.454,2.019Z"/><path class="e" d="M219.256,212.522c-1.6.731-3.209,1.465-4.788,2.25a14.015,14.015,0,0,0-4.194,2.55,4.678,4.678,0,0,0-.478,5.889,6.225,6.225,0,0,0,5.053,2.689,2,2,0,0,0,0-4c-.093,0-.185,0-.278-.007-.224-.021-.184-.013.119.022-.029.034-.373-.083-.405-.092a2.733,2.733,0,0,0-.394-.134q.4.171.1.03c-.062-.032-.123-.065-.182-.1a1.442,1.442,0,0,1-.406-.266l.189.141c-.071-.06-.139-.122-.205-.186-.047-.047-.277-.226-.28-.3.169.226.191.252.066.076-.051-.076-.1-.154-.144-.233-.053-.095-.237-.482-.042-.055-.212-.463.042.349-.038-.142q.02-.351-.03.02a2.462,2.462,0,0,1,.055-.255c.02-.086.043-.17.071-.253q-.192.388-.066.149l.054-.088q.174-.248-.1.121a2.482,2.482,0,0,0,.261-.289c.083-.084.331-.238.371-.342-.048.125-.392.246-.077.08,2.562-1.352,5.151-2.616,7.788-3.817a2.009,2.009,0,0,0,.717-2.737,2.057,2.057,0,0,0-2.736-.717Z"/><path class="e" d="M213.262,223.179q-2.13,3.591-4.152,7.242-1.013,1.828-2,3.673a17.082,17.082,0,0,0-1.776,3.805,4.973,4.973,0,0,0,4.352,5.99c2.994.149,4.916-2.43,6.694-4.432a56.872,56.872,0,0,0,5.754-7.672c1.366-2.19-2.093-4.2-3.454-2.019a50.947,50.947,0,0,1-5.222,6.968c-.521.584-1.05,1.159-1.584,1.731-.284.3-.56.621-.859.911-.162.145-.171.163-.024.054a4.07,4.07,0,0,1-.358.227,1.441,1.441,0,0,1-.576.217q-.375.092-.147.02-.384-.006-.129,0c.289.268-.238-.247-.265-.276a1.046,1.046,0,0,1-.289-.381c-.067-.128-.068-.116,0,.036-.056-.234-.069-.241-.041-.023a2.594,2.594,0,0,1,.006-.394q-.015.281.06-.111a12.246,12.246,0,0,1,.806-1.663q1.048-2.008,2.146-3.992,2.19-3.98,4.508-7.887c1.316-2.219-2.141-4.233-3.454-2.019Z"/><path class="e" d="M232.8,220.014c-.4,2.919-.635,5.863-1.226,8.749a31.326,31.326,0,0,1-1.092,4.006c-.132.379-.273.754-.417,1.128-.041.107-.3.67-.056.174-.089.183-.183.357-.282.535.265-.474-.33.265.028,0a2.612,2.612,0,0,1-.331.195q.234-.1-.139.029-.444.086-.08.045a2.389,2.389,0,0,1-.254,0c-.1,0-.2-.011-.3-.022.26.038.27.038.028,0s-.493-.092-.739-.146c-.776-.17-1.538-.415-2.317-.565a8.264,8.264,0,0,0-1.751-.038,7.929,7.929,0,0,1-.858-.032c.425.041-.258-.067-.343-.088-.1-.03-.206-.064-.307-.1.232.1.245.106.041.01-.184-.115-.382-.209-.567-.327-.436-.279-.85-.595-1.268-.9a2.016,2.016,0,0,0-2.737.717,2.046,2.046,0,0,0,.718,2.737,8.426,8.426,0,0,0,5.206,1.984c.25,0,.5-.01.75-.025.076,0,.364.017.419-.03.106-.089-.342.034-.367-.05a5.149,5.149,0,0,0,.872.213,24.643,24.643,0,0,0,2.443.539,5.066,5.066,0,0,0,5.525-2.531,27.067,27.067,0,0,0,2.082-6.658c.552-2.805.79-5.659,1.173-8.488a2.069,2.069,0,0,0-1.4-2.46,2.013,2.013,0,0,0-2.461,1.4Z"/><path class="e" d="M227.741,170.093c-.37,7.51-.793,15.04-2.736,22.336-1.832,6.878-4.9,13.286-7.578,19.855a2.024,2.024,0,0,0,1.4,2.46c3.707,1.17,7.391,2.414,11.067,3.676,2.316.8,4.689,1.52,6.954,2.457a2.034,2.034,0,0,0,2.46-1.4c3.415-9.187,7.24-18.312,9.182-27.962a73.8,73.8,0,0,0,1.4-15.888c-.1-5.4-.95-10.765-3.821-15.432-3.06-4.973-7.774-8.637-12.856-11.378v3.454l0,0a2.011,2.011,0,0,0,0-3.454c-2.437-1.178-4.961-2.155-7.482-3.135a2.015,2.015,0,0,0-2.46,1.4,2.047,2.047,0,0,0,1.4,2.461c2.2.855,4.4,1.7,6.526,2.731v-3.454l0,0a2.013,2.013,0,0,0,0,3.454c4.094,2.208,8.038,5.01,10.724,8.877,2.889,4.16,3.81,8.906,3.957,13.887a69.028,69.028,0,0,1-1.144,14.918,109.74,109.74,0,0,1-4.2,14.8c-1.576,4.6-3.39,9.1-5.084,13.659l2.46-1.4c-2.264-.936-4.637-1.661-6.953-2.456-3.677-1.263-7.361-2.506-11.068-3.676l1.4,2.46c2.733-6.706,5.863-13.244,7.69-20.28,1.946-7.5,2.388-15.268,2.767-22.974.126-2.573-3.874-2.566-4,0Z"/><path class="e" d="M223.917,232.98c-.135.279-.283.552-.432.824a6.786,6.786,0,0,1-.509.853l.312-.405-.017.021a2.06,2.06,0,0,0,0,2.829l.405.313a2.011,2.011,0,0,0,1.01.273l.531-.072a2,2,0,0,0,.883-.514,6.14,6.14,0,0,0,.529-.734c.1-.167.2-.337.29-.508.156-.284.311-.57.452-.861a1.492,1.492,0,0,0,.237-.744,2.057,2.057,0,0,0-.954-1.993l-.478-.2a2.022,2.022,0,0,0-1.064,0l-.477.2a2.008,2.008,0,0,0-.718.718Z"/><path class="e" d="M178.717,110.618a28.563,28.563,0,0,1,1.742-14.391,3.412,3.412,0,0,1,.2-.469c.123-.266.245-.531.374-.794q.427-.874.92-1.714A22.618,22.618,0,0,1,184.236,90c4.926-5.778,12.207-8.457,19.647-8.95,7.584-.5,15.626.6,21.957,5.079a24.627,24.627,0,0,1,8.849,12.43,32.637,32.637,0,0,1,1,3.844c.115.578.212,1.159.3,1.742.081.55-.033-.278.009.059.02.166.04.332.058.5.033.3.062.593.087.889.083,1,.122,2,.105,3-.008.434-.025.869-.056,1.3-.014.185-.033.37-.048.555-.007.087-.021.174-.029.261-.042.467.066-.455.014-.092a2.068,2.068,0,0,0,1.4,2.461,2.014,2.014,0,0,0,2.46-1.4c1.421-9.9-2.51-21.2-10.276-27.591-6.469-5.322-14.841-7.213-23.08-7.142-8.783.077-17.8,2.544-24.081,8.974-6.569,6.721-9.067,16.575-7.687,25.759a2.014,2.014,0,0,0,2.46,1.4,2.052,2.052,0,0,0,1.4-2.461Z"/><path class="e" d="M230.105,126.492c-.055,9.3-4.087,20.8-14.34,22.847-2.523.5-1.455,4.361,1.063,3.857,12.023-2.4,17.212-15.695,17.277-26.7.015-2.574-3.985-2.577-4,0Z"/><path class="e" d="M180.023,128.075a30.161,30.161,0,0,0,4.9,16.079,22.562,22.562,0,0,0,14.743,9.539,2.057,2.057,0,0,0,2.461-1.4,2.018,2.018,0,0,0-1.4-2.46,18.663,18.663,0,0,1-12.535-7.971,26.339,26.339,0,0,1-4.174-13.79c-.067-2.569-4.068-2.579-4,0Z"/><path class="e" d="M181.865,115.781a5.618,5.618,0,0,0-7.314-.079c-2.05,1.751-2.015,4.88-1.686,7.331.649,4.839,3.812,10.492,9.363,10.38a2,2,0,0,0,0-4c-3.022.061-4.641-3.263-5.255-5.983a8.141,8.141,0,0,1,0-4.506c-.056.127.193-.262.1-.12s.267-.236.082-.1a1.392,1.392,0,0,1,.786-.349,1.893,1.893,0,0,1,1.094.251,2.058,2.058,0,0,0,2.829,0,2.015,2.015,0,0,0,0-2.828Z"/><path class="e" d="M235.286,118.609a1.6,1.6,0,0,1,2.063.315,8.142,8.142,0,0,1,0,4.506c-.614,2.717-2.236,6.044-5.245,5.983-2.575-.052-2.575,3.948,0,4,5.547.113,8.705-5.549,9.353-10.38.324-2.417.371-5.49-1.6-7.258a5.61,5.61,0,0,0-7.4.006,2.014,2.014,0,0,0,0,2.828,2.043,2.043,0,0,0,2.828,0Z"/><path class="e" d="M216.823,101.7a9.619,9.619,0,0,1-.33,1.459,3.881,3.881,0,0,0-.261.732l.11-.257c-.032.073-.064.146-.1.218-.05.109-.1.217-.155.324a10.5,10.5,0,0,1-.734,1.234c-.068.1-.14.195-.21.293-.237.331.264-.314.018-.027-.169.2-.336.4-.515.586q-.247.261-.512.506a3.7,3.7,0,0,0-.592.507l.216-.165-.193.142c-.1.07-.195.139-.3.206-.2.133-.4.26-.609.379s-.419.231-.635.335a2.01,2.01,0,0,0-.326.151q.443-.185.147-.064l-.111.043a9.713,9.713,0,0,1-1.5.432,2.014,2.014,0,0,0-1.4,2.46,2.05,2.05,0,0,0,2.46,1.4,12.259,12.259,0,0,0,9.374-9.828,2.188,2.188,0,0,0-.2-1.541,2,2,0,0,0-3.656.478Z"/><path class="e" d="M204.987,101.276c-.008.144-.017.287-.031.43-.006.071-.014.143-.022.214q-.027.231.025-.177a2.425,2.425,0,0,1-.147.773,11.769,11.769,0,0,1-.487,1.569c-.135.353.116-.24.006-.016-.063.129-.12.26-.183.389-.117.235-.241.467-.374.694-.145.247-.3.49-.461.726-.068.1-.141.193-.208.292-.088.118-.056.078.1-.118q-.066.084-.135.168a11.61,11.61,0,0,1-1.075,1.154c-.192.18-.393.347-.593.519-.335.29.284-.2-.048.038-.116.084-.232.168-.351.248a10.755,10.755,0,0,1-1.361.786,2.463,2.463,0,0,0-.39.178c.316-.238.137-.059-.054.011-.269.1-.543.185-.819.263a2,2,0,1,0,1.063,3.857,13.379,13.379,0,0,0,9.549-12,2.013,2.013,0,0,0-2-2,2.046,2.046,0,0,0-2,2Z"/><path class="e" d="M194.377,102.029a16.264,16.264,0,0,1-.931,3.318c.185-.469.013-.035-.035.072q-.094.206-.194.409-.2.412-.431.811t-.488.8q-.13.2-.267.393c-.031.045-.378.525-.223.315s-.16.2-.2.243c-.1.126-.211.252-.32.375q-.332.378-.688.734t-.752.706q-.2.175-.4.343c-.047.039-.453.357-.287.233s-.258.185-.309.222q-.227.16-.458.314-.476.316-.969.6a21.125,21.125,0,0,1-2.249,1.121,2.005,2.005,0,0,0-.717,2.736,2.062,2.062,0,0,0,2.736.718c5.59-2.408,10.029-7.291,11.038-13.4a2.049,2.049,0,0,0-1.4-2.46,2.023,2.023,0,0,0-2.46,1.4Z"/><path class="e" d="M221.1,107.171a11.942,11.942,0,0,0,7.31,8.508,2,2,0,0,0,1.541-.2,2,2,0,0,0,.718-2.736,2.349,2.349,0,0,0-1.195-.919c.637.262.006,0-.143-.077-.172-.085-.341-.174-.508-.27a10.636,10.636,0,0,1-.961-.628c-.32-.231.375.312.074.057-.067-.057-.135-.111-.2-.168-.146-.124-.288-.253-.427-.385a10.249,10.249,0,0,1-.785-.842c-.05-.061-.251-.318-.04-.042s.014.016-.033-.048c-.124-.169-.242-.341-.355-.518a9.935,9.935,0,0,1-.564-1c-.038-.078-.075-.157-.111-.236-.164-.359.028.138.056.142-.054-.008-.182-.477-.2-.538a9.628,9.628,0,0,1-.315-1.159,2.014,2.014,0,0,0-2.461-1.4,2.048,2.048,0,0,0-1.4,2.46Z"/><path class="e" d="M205.5,131.239a24.06,24.06,0,0,1,.568,2.6l-.071-.532a1.541,1.541,0,0,1,.009.359l.072-.532a.913.913,0,0,1-.04.162l.2-.478a.7.7,0,0,1-.057.1l.313-.405a.614.614,0,0,1-.085.084l.405-.313a1.761,1.761,0,0,1-.206.109l.478-.2a1.515,1.515,0,0,1-.347.1l.532-.071a1.367,1.367,0,0,1-.326,0l.532.072c-.123-.017-.243-.047-.366-.064a1.526,1.526,0,0,0-.8-.036,1.5,1.5,0,0,0-.743.238,2,2,0,0,0-.718,2.736l.313.405a2,2,0,0,0,.882.514c.339.046.668.13,1.013.145a3.34,3.34,0,0,0,1.567-.383,2.41,2.41,0,0,0,1.291-1.57,3.658,3.658,0,0,0-.012-1.616c-.142-.837-.335-1.666-.551-2.487a2,2,0,0,0-2.46-1.4,2.017,2.017,0,0,0-1.195.919,2.1,2.1,0,0,0-.2,1.541Z"/><path class="e" d="M221.1,124.028c.428,1.388.149,4.582-2.481,4.854-3.476-.021-3.661-3.882-2.491-5.7C217.09,121.7,219.907,121.08,221.1,124.028Z"/><path class="e" d="M194.011,124.028c-.427,1.388-.149,4.582,2.482,4.854,3.476-.021,3.661-3.882,2.491-5.7C198.026,121.7,195.209,121.08,194.011,124.028Z"/><path class="e" d="M210.517,140.164c-.077.076-.367.306-.036.051s-.033.014-.13.073c-.115.071-.233.136-.354.2-.079.04-.17.072-.246.116.095-.055.471-.18.156-.072a8.307,8.307,0,0,1-1.18.324l-.2.034q-.228.036.189-.023a1.333,1.333,0,0,1-.363.037q-.433.036-.869.036c-.265,0-.53-.009-.793-.029a3.438,3.438,0,0,0-.438-.044c.194-.011.36.054.058,0a7.29,7.29,0,0,1-1.2-.317c-.16-.058-.423-.226.108.054-.067-.035-.139-.063-.207-.1q-.2-.1-.395-.217c-.1-.06-.187-.133-.285-.192.578.352.282.228.119.068a2,2,0,1,0-2.829,2.829,9.8,9.8,0,0,0,11.718,0,2,2,0,0,0-2.828-2.829Z"/><path class="e" d="M201.633,158.877a17.01,17.01,0,0,0,13.143-.673,2.009,2.009,0,0,0,.717-2.736,2.054,2.054,0,0,0-2.736-.718c-.12.057-.24.113-.361.167l-.072.029c-.186.071-.372.142-.559.207-.438.153-.884.284-1.334.394s-.907.2-1.366.266c.381-.054-.385.035-.456.041-.231.019-.463.031-.7.039q-.7.024-1.391-.016c-.232-.014-.463-.038-.694-.057s-.263-.03-.06,0c-.1-.015-.2-.03-.294-.047a14.832,14.832,0,0,1-2.778-.751,2.009,2.009,0,0,0-2.46,1.4,2.053,2.053,0,0,0,1.4,2.46Z"/><path class="a" d="M80.176,87.964A7.949,7.949,0,0,0,82.9,84.853c.832.855,1.69,1.673,2.562,2.426,4.475,3.87,9.744,5.987,15.485,7.417a27.784,27.784,0,0,0,18.021-1.787l-.422.654c-2.975,4.607-8.694,11.123-14.032,12.381a18.894,18.894,0,0,1-10.773-.889c-7.178-2.656-13.1-9.175-17.374-15.712A16,16,0,0,0,80.176,87.964Z"/><path class="a" d="M139.307,53.986q.114,1.755.113,3.487a41.886,41.886,0,0,1-8.991,26.664c-6.912,8.662-18.582,13.2-29.335,10.522-5.741-1.43-11.01-3.547-15.485-7.417A45.749,45.749,0,0,1,75.2,73.933,28.064,28.064,0,0,1,71.42,72.02a19.691,19.691,0,0,1-4.664-4.8,13.413,13.413,0,0,1-2.605-8.312,10.741,10.741,0,0,1,.639-3.427,4.622,4.622,0,0,1,3.024-2.6,4.9,4.9,0,0,1,4.028.652l6.831-.717a27.2,27.2,0,0,0,3.964-8.283c.48-.576,6.539-1.523,9.036-1.909a65.381,65.381,0,0,0,10.173-2.333c1.308-.4,3.877-1.309,5.359-1.925-1.084.97-3.2,2.978-2.824,3.774.289.61,1.31.668,2.141.739a33.976,33.976,0,0,0,9.373-.662,70.244,70.244,0,0,0,17.6-5.686,46.733,46.733,0,0,0,5.876-3.379s.029-.02.083-.054a57.357,57.357,0,0,1,.5,14.659Z"/><path class="g" d="M31.6,121.45q.226-.639.457-1.286a51.988,51.988,0,0,1,7.466-13.173A44.86,44.86,0,0,1,51.08,97.658c8.952-4.684,23.191-9.512,25.286-8.315,4.27,6.537,10.2,13.056,17.374,15.712a18.894,18.894,0,0,0,10.773.889c5.338-1.258,11.057-7.774,14.032-12.381l1.643-2.809a66.4,66.4,0,0,1,10.67,2.015c9.333,1.778,16.212,10.648,18.668,20.146,4.443,17.188,2.665,60.3,2.665,77.632v1.6c-25.861-.068-57.821-.364-75.7-.416a83.507,83.507,0,0,0-2.371,14.222c-11.407-1.926-26.02-4.367-40.815-8.74-3.362-.994-10.347-3.707-13.111-7.852-3.111-4.667-2.01-11.064-1.333-16.593C21.46,151.522,25.542,138.524,31.6,121.45Z"/><path class="f" d="M62.037,34.459a38.609,38.609,0,0,1,2.432-9.634c1.606-4.108,7.574-10.574,10.759-11.537l5.549-5c3.636-5.079,15.636-7,26.229-6.042,7.467.678,13.63,4.074,19.185,8.407,4.889,4.222,6.42,6.434,10.064,13.244a31.172,31.172,0,0,1,3.048,9.229c-.055.035-.084.055-.084.055a46.551,46.551,0,0,1-5.877,3.379,70.225,70.225,0,0,1-17.6,5.686,33.983,33.983,0,0,1-9.373.662c-.831-.071-1.853-.129-2.141-.739-.377-.8,1.74-2.8,2.824-3.774-1.482.616-4.051,1.522-5.359,1.925a65.381,65.381,0,0,1-10.173,2.333c-2.5.386-8.556,1.333-9.036,1.909a27.2,27.2,0,0,1-3.964,8.283l-6.831.717a4.9,4.9,0,0,0-4.028-.652,4.774,4.774,0,0,0-2.517,1.711L63.969,52.1A40.633,40.633,0,0,1,62.037,34.459Z"/><path class="e" d="M122.956,93.105c4.357.827,8.895,1.61,12.84,3.739a23.2,23.2,0,0,1,9.064,9.588c3.136,5.777,3.99,12.419,4.591,18.851,1.388,14.88,1.185,29.916,1,44.842-.087,6.807-.252,13.614-.255,20.422,0,2.574,4,2.578,4,0,.006-13.941.478-27.875.305-41.818-.095-7.576-.309-15.166-.979-22.716-.6-6.793-1.435-13.7-4.361-19.934a28.244,28.244,0,0,0-10.176-12.01c-4.5-2.818-9.819-3.846-14.961-4.821-2.515-.477-3.593,3.377-1.063,3.857Z"/><path class="e" d="M134.3,130.3a454.743,454.743,0,0,0-12.029,60.874,2.01,2.01,0,0,0,2,2,2.051,2.051,0,0,0,2-2,447.15,447.15,0,0,1,11.886-59.81c.672-2.488-3.186-3.55-3.857-1.064Z"/><path class="e" d="M44.488,173.689c9.552,2.483,19.239,4.441,28.875,6.564,2.509.553,3.58-3.3,1.064-3.857-9.637-2.123-19.323-4.081-28.876-6.564-2.493-.649-3.556,3.209-1.063,3.857Z"/><path class="e" d="M57.483,132.682c-3.922,12.475-7.241,25.123-10.924,37.668-.727,2.475,3.132,3.532,3.857,1.063,3.683-12.545,7-25.193,10.924-37.668.774-2.461-3.086-3.514-3.857-1.063Z"/><path class="e" d="M116.818,92.554a39.981,39.981,0,0,1-5.678,6.907c-2.013,1.947-4.38,3.883-7.159,4.554-6.888,1.663-13.776-2.17-18.6-6.775a50.694,50.694,0,0,1-7.284-8.906c-1.408-2.143-4.873-.141-3.454,2.018,4.15,6.313,9.48,12.531,16.472,15.756a22.1,22.1,0,0,0,11.9,2.111,17.924,17.924,0,0,0,9.54-4.633,42.253,42.253,0,0,0,7.724-9.014c1.41-2.162-2.052-4.169-3.454-2.018Z"/><path class="e" d="M76.9,91.272a17.347,17.347,0,0,0,4.3-1.591,9.94,9.94,0,0,0,3.21-3.458A2,2,0,0,0,80.957,84.2a14.181,14.181,0,0,1-.8,1.176l.313-.405a6.882,6.882,0,0,1-1.164,1.2l.4-.313a6.5,6.5,0,0,1-1.413.811l.478-.2a25.466,25.466,0,0,1-2.944.944A2,2,0,0,0,76.9,91.272Z"/><path class="e" d="M106.826,81.32a9.414,9.414,0,0,0,4.938,2.5,12.4,12.4,0,0,0,4.561.193,8.988,8.988,0,0,0,2.7-1.026,2.018,2.018,0,0,0,.718-2.737A2.045,2.045,0,0,0,117,79.535c-.145.077-.29.154-.436.228-.176.089-.719.257-.081.056-.181.057-.355.134-.539.188-.132.038-.531.054-.622.141.083-.079.473-.05.079-.014-.118.011-.235.019-.353.024-.294.011-.587.006-.88-.012-.151-.009-.3-.022-.451-.037-.06-.006-.644-.1-.17-.016-.292-.051-.583-.1-.873-.16a10.727,10.727,0,0,1-1.395-.4,3.286,3.286,0,0,0-.336-.131c.132.032.405.185.117.043-.168-.083-.336-.165-.5-.258-.131-.074-.261-.153-.387-.236-.068-.046-.133-.1-.2-.141-.277-.173.4.336.166.131-.165-.147-.332-.288-.485-.449a2.017,2.017,0,0,0-2.828,0,2.04,2.04,0,0,0,0,2.828Z"/><path class="e" d="M114.4,67.235c.045.286.085.572.124.859l-.072-.532c.059.442.115.885.159,1.329a5.779,5.779,0,0,1,.058,1.167l.072-.531a1.13,1.13,0,0,1-.072.274l.2-.478a.927.927,0,0,1-.068.114l.312-.405a.674.674,0,0,1-.094.091l.4-.313a.934.934,0,0,1-.148.075l.478-.2a1.977,1.977,0,0,1-.426.116l.531-.071a1.531,1.531,0,0,1-.345,0l.532.072c-.2-.029-.377-.1-.568-.145a2.1,2.1,0,0,0-1.541.2,2,2,0,0,0,.477,3.656c.191.045.374.113.569.144a3.52,3.52,0,0,0,1.767-.09,2.908,2.908,0,0,0,1.164-.672,2.591,2.591,0,0,0,.629-1.072,3.211,3.211,0,0,0,.123-1.238c-.078-1.142-.233-2.282-.41-3.412a2,2,0,0,0-.919-1.2,2.044,2.044,0,0,0-1.541-.2,2.017,2.017,0,0,0-1.2.919l-.2.478a2.018,2.018,0,0,0,0,1.063Z"/><path class="e" d="M97.637,56.736c-.725,1.715-.783,5.823,2.535,6.51,4.435.423,5.171-4.476,3.914-6.943C103.057,54.284,99.545,53.131,97.637,56.736Z"/><path class="e" d="M125.472,58.457c-.744,1.643-1.015,5.631,1.943,6.4,3.979.549,4.9-4.187,3.9-6.621C130.492,56.245,127.385,55.016,125.472,58.457Z"/><path class="e" d="M137.159,54.023c.746,12.206-2.989,25.315-12.79,33.273a27.627,27.627,0,0,1-15.275,6.1,32.774,32.774,0,0,1-17.54-4.324c-6.072-3.349-11-9.062-14.278-15.117-1.225-2.265-4.679-.248-3.454,2.018a42.962,42.962,0,0,0,13.784,15.4,37.893,37.893,0,0,0,19.076,6.08,31.233,31.233,0,0,0,18.007-5.45A36.772,36.772,0,0,0,137.16,76.832a47.544,47.544,0,0,0,4-22.809c-.156-2.557-4.157-2.575-4,0Z"/><path class="e" d="M72.7,51.84a6.883,6.883,0,0,0-9.514,2.122c-1.633,2.727-1.408,6.67-.585,9.616a19.258,19.258,0,0,0,12.68,12.579c2.477.72,3.535-3.139,1.064-3.857a15.542,15.542,0,0,1-9.478-8.6,10.9,10.9,0,0,1-.7-6.27A3.019,3.019,0,0,1,67.767,55a2.968,2.968,0,0,1,2.917.294c2.171,1.4,4.178-2.063,2.019-3.454Z"/><path class="e" d="M82.5,9.3a10.816,10.816,0,0,1,4.764-3.08,33.887,33.887,0,0,1,7.987-1.851c5.991-.694,12.389-.667,18.149,1.283a37.638,37.638,0,0,1,14.338,9.151,28.145,28.145,0,0,1,3.98,5.123,45.041,45.041,0,0,1,4.065,7.771,37.079,37.079,0,0,1,2.085,9.933c.142,1.788.191,3.584.165,5.378q-.016,1.214-.08,2.425a7.294,7.294,0,0,1-.209,2.259l.514-.883-.165.132,1.946-.515-.2-.049,1.2.919-.1-.179v2.019l.1-.126a2.012,2.012,0,0,0-.718-2.736,2.05,2.05,0,0,0-2.736.717l-.1.126a1.968,1.968,0,0,0,0,2.019,2.281,2.281,0,0,0,4.2-.587,21.826,21.826,0,0,0,.34-5.133,55.066,55.066,0,0,0-.806-10.863,41.713,41.713,0,0,0-8.064-17.592A40.155,40.155,0,0,0,118.325,3.357C111.7.272,104.461-.378,97.236.18,91,.662,83.054,1.891,79.05,7.284a2.014,2.014,0,0,0,.717,2.736A2.048,2.048,0,0,0,82.5,9.3Z"/><path class="e" d="M132.515,34.746a62.924,62.924,0,0,1-16.476,5.427,38.426,38.426,0,0,1-7.6.837c-.786-.008-1.6-.158-2.382-.124l-.116-.006q-1.1-.361.22,1.354c-.154.066.085-.141.175-.239.717-.78,1.424-1.544,2.216-2.256,1.918-1.726-.919-4.547-2.829-2.828-1.828,1.645-5.558,5.229-2.158,7.353,1.475.922,3.863.767,5.522.747a36.69,36.69,0,0,0,5.209-.5,68.7,68.7,0,0,0,20.24-6.315c2.3-1.16.276-4.612-2.019-3.454Z"/><path class="e" d="M112.182,33.264a39.233,39.233,0,0,1-7.43,3.9,69.264,69.264,0,0,1-8.239,2.515c-2.945.691-5.939,1.092-8.918,1.6-1.287.22-2.576.446-3.846.745a5.7,5.7,0,0,0-2.675,1.131c-1.887,1.759.946,4.583,2.829,2.829a1.182,1.182,0,0,1-.326.235,3.5,3.5,0,0,0,.653-.194c.5-.135,1.008-.243,1.516-.348,1.323-.275,2.655-.5,3.988-.72,2.971-.487,5.942-.931,8.865-1.672a52.351,52.351,0,0,0,15.6-6.565c2.161-1.383.158-4.847-2.019-3.454Z"/><path class="e" d="M80.56,44.036q-.3,1.054-.679,2.083c-.069.184-.14.366-.213.548-.036.092-.073.183-.11.274.107-.251.116-.274.029-.07-.15.339-.3.677-.462,1.011A28.828,28.828,0,0,1,76.8,51.841a2.009,2.009,0,0,0,.717,2.736,2.052,2.052,0,0,0,2.736-.717A29.266,29.266,0,0,0,84.417,45.1a2,2,0,1,0-3.857-1.063Z"/><path class="e" d="M134.349,38.292a41.2,41.2,0,0,0,5.879-3.379,2.136,2.136,0,0,0,.92-1.195,2.05,2.05,0,0,0-.2-1.542,2.026,2.026,0,0,0-2.736-.717,41.373,41.373,0,0,1-5.88,3.38,2,2,0,0,0-.919,1.2,2.042,2.042,0,0,0,.2,1.541,2.021,2.021,0,0,0,1.2.919,2.274,2.274,0,0,0,1.541-.2Z"/><path class="e" d="M74.7,11.359c-2.956.973-5.428,3.472-7.44,5.75A26.08,26.08,0,0,0,61.8,26.355a42.045,42.045,0,0,0,.245,26.279c.8,2.435,4.664,1.392,3.858-1.063a38.336,38.336,0,0,1-.535-23.24,21.575,21.575,0,0,1,4.492-8.13,30.425,30.425,0,0,1,3.339-3.339A12.735,12.735,0,0,1,74.63,15.8c.208-.132.421-.255.638-.372a1.6,1.6,0,0,1,.492-.212c2.434-.8,1.391-4.665-1.063-3.857Z"/><path class="a" d="M114.03,186.606c-1.839-2.207-5.857-5.226-8.839-5.985-7.48-.7-16.212,1.642-25,1.643a67.433,67.433,0,0,0-5.3,18.74c1.344.758,2.216,1.252,2.216,1.252a22.657,22.657,0,0,0,5.581,1.127c2-.258,3.308-1.528,5.325-1.577,1.074-.026,1.377.31,2,1.185a12.012,12.012,0,0,1,1.256,2,4.748,4.748,0,0,0,2.147,2.316,3.428,3.428,0,0,0,3.161-.34,2.639,2.639,0,0,0,1.251-1.758l.081-.579a6.015,6.015,0,0,0,1.123,1.986,4.952,4.952,0,0,0,2.333,1.056,3.7,3.7,0,0,0,2.685-.8,4.5,4.5,0,0,0,1.333-2.148s.067-.362.172-.946a4.281,4.281,0,0,0,.347.428,3.788,3.788,0,0,0,3.852,1.018,3.175,3.175,0,0,0,1.963-3.092,22.738,22.738,0,0,0-.64-6.353,47.529,47.529,0,0,1,6.269,6.241c1.726,1.96,4.248,4.393,6.408,2.926a2.874,2.874,0,0,0,1.444-3.3,10.618,10.618,0,0,0-1.407-3.333c-2.519-4.3-6.037-7.815-9.754-11.719"/><path class="e" d="M112.616,188.021c3.648,3.828,7.872,7.732,10.143,12.6a9.976,9.976,0,0,1,.389,1.135,4.3,4.3,0,0,1,.16.678.449.449,0,0,1-.089.356c.095-.165-.167.154-.183.171a1.723,1.723,0,0,1-.411.332.589.589,0,0,1-.663.035c-1.965-.7-3.458-3.03-4.83-4.534a46.957,46.957,0,0,0-6.431-5.811,2.012,2.012,0,0,0-2.736.718,2.048,2.048,0,0,0,.718,2.736,43.508,43.508,0,0,1,6.084,5.7c1.928,2.147,4.036,4.923,7.134,5.233a5.087,5.087,0,0,0,5.275-5.98c-.555-2.878-2.413-5.46-4.161-7.738a106.268,106.268,0,0,0-7.571-8.46c-1.779-1.867-4.605.964-2.828,2.829Z"/><path class="e" d="M81.488,184.251c6.239-.185,12.383-1.417,18.612-1.709a33.365,33.365,0,0,1,4.266.014,6.933,6.933,0,0,1,2.756,1.039,20.154,20.154,0,0,1,5.494,4.426c1.675,1.959,4.493-.881,2.828-2.829a23.491,23.491,0,0,0-5.982-4.867,14.476,14.476,0,0,0-3.447-1.552,17.115,17.115,0,0,0-4.612-.275c-6.671.127-13.244,1.555-19.915,1.753-2.569.076-2.58,4.076,0,4Z"/><path class="e" d="M109.152,196.375c.14.744.293,1.486.415,2.233.025.158.05.316.072.474-.059-.42,0,.029.014.195q.055.572.071,1.147c.014.454.011.908,0,1.361-.006.183-.014.365-.024.547-.024.455.079-.254-.016.079-.039.138-.075.28-.11.419-.085.331.006,0,.041-.066-.034.066-.063.135-.1.2-.053.088-.3.383-.141.234.189-.172-.02,0-.048.027-.181.145-.095.044.032-.016a1.912,1.912,0,0,0-.215.125c-.212.144.258-.032-.012,0a1.446,1.446,0,0,0-.264.069c.034-.011.319-.012.082-.007-.181,0-.363,0-.545,0-.229,0,.038,0,.08.012-.117-.031-.238-.061-.356-.087-.064-.013-.363-.129-.037.011-.084-.036-.165-.08-.245-.124s-.158-.091-.237-.138c-.019-.011-.253-.189-.093-.058.119.1-.2-.214-.264-.277-.15-.16,0,.009.024.042-.076-.1-.145-.214-.212-.324-.122-.2-.226-.405-.33-.614s-.017-.024,0,.018c-.039-.091-.072-.184-.106-.278a13.273,13.273,0,0,1-.377-1.345c-.215-.88-.429-1.76-.675-2.632a21.209,21.209,0,0,0-2.545-5.821,2,2,0,0,0-3.454,2.019c.294.451.571.912.821,1.388.112.214.22.429.322.648.058.123.114.246.169.37-.086-.194,0-.01.033.081a26.4,26.4,0,0,1,.958,2.969c.586,2.192.945,4.465,2.482,6.24a5.742,5.742,0,0,0,6.565,1.4c2.01-.895,2.739-3.072,2.8-5.112a30.067,30.067,0,0,0-.713-6.473,2.011,2.011,0,0,0-2.461-1.4,2.052,2.052,0,0,0-1.4,2.46Z"/><path class="e" d="M103.448,204.2c-.017.075-.188.539-.051.248a3.872,3.872,0,0,1-.311.517c.176-.256-.147.174-.191.223-.066.072-.511.432-.286.3.351-.2-.444.2-.113.049.228-.1-.263.078-.326.095s-.592.088-.318.075c.293-.014-.237-.024-.283-.012q-.233-.015.171.024c-.081-.016-.161-.035-.24-.056-.2-.059-.4-.116-.595-.19.32.12-.108-.056-.194-.1s-.492-.359-.16-.063c-.056-.05-.269-.2-.269-.274l.158.2c-.052-.076-.1-.153-.151-.232-.167-.273-.3-.562-.438-.849.186.381-.065-.166-.08-.2-.072-.185-.14-.372-.207-.56-.144-.405-.278-.814-.407-1.224-.282-.891-.532-1.792-.8-2.686A24.022,24.022,0,0,0,96,194.152a2,2,0,1,0-3.454,2.018c.305.508.591,1.025.853,1.556q.147.3.285.6c.061.135.121.27.179.406q-.09-.2.051.138c.377,1,.68,2.014.984,3.037a18,18,0,0,0,2.167,5.453,5.953,5.953,0,0,0,5.751,2.221,5.832,5.832,0,0,0,4.491-4.318,2,2,0,0,0-3.857-1.064Z"/><path class="e" d="M95.892,204.682a1.283,1.283,0,0,1-1.817.733c-.839-.455-1.18-1.7-1.665-2.461a8.2,8.2,0,0,0-2.148-2.565,4.731,4.731,0,0,0-3.436-.453,17.8,17.8,0,0,0-3.139,1.117c-.3.11-.591.2-.894.281l-.316.069c.116-.01.127-.012.032-.009-.124.006-.886-.074-.569-.028-.825-.119-1.644-.307-2.453-.5-.384-.093-.767-.191-1.147-.3-.244-.07-.984-.4-.23-.033a2.054,2.054,0,0,0-2.737.717,2.019,2.019,0,0,0,.718,2.737,17.509,17.509,0,0,0,4.986,1.269,6.958,6.958,0,0,0,3.383-.238,25.244,25.244,0,0,1,3.546-1.208c.266-.047.356.036.08-.067-.291-.108.046.068.03.036.249.518.719.979,1.014,1.48a9.619,9.619,0,0,0,2.715,3.47c2.771,1.873,7.154.354,7.9-2.98.565-2.507-3.291-3.577-3.857-1.063Z"/><path class="e" d="M77.376,87.616c-1.52-.772-3.349-.41-4.944-.1a55.385,55.385,0,0,0-7.16,2.016A83.516,83.516,0,0,0,48.548,96.8a41.194,41.194,0,0,0-13.24,12.628c-3.484,5.423-5.6,11.29-7.685,17.348a218.233,218.233,0,0,0-9.493,36.868c-.563,3.554-1.019,7.122-1.468,10.691a38.03,38.03,0,0,0-.314,10.156,13.686,13.686,0,0,0,4.086,8.2,25.863,25.863,0,0,0,7.379,4.607,66.213,66.213,0,0,0,9.245,3.062c4.334,1.181,8.7,2.227,13.094,3.175,7.768,1.678,15.6,3.026,23.433,4.349a2.041,2.041,0,0,0,2.532-1.929c.759-8.439,2.585-17.066,6.542-24.62,1.193-2.278-2.258-4.3-3.454-2.019-4.3,8.213-6.263,17.466-7.088,26.639l2.532-1.928c-13.778-2.326-27.638-4.715-41.025-8.8a34.682,34.682,0,0,1-6.553-2.727,13.558,13.558,0,0,1-5.56-4.805c-1.524-2.679-1.527-5.942-1.32-8.928.225-3.224.7-6.446,1.141-9.645a206.927,206.927,0,0,1,8.334-35.879c1.8-5.515,3.443-11.29,6.064-16.479a49.541,49.541,0,0,1,4.6-7.591,35.074,35.074,0,0,1,5.845-5.784c5.023-4.109,11.087-6.67,17.124-8.915a81.772,81.772,0,0,1,8.2-2.638c.587-.151,1.178-.291,1.772-.412.226-.046.453-.086.679-.129.073-.014.67-.1.288-.053.391-.051.785-.038,1.175-.078.523-.054-.038.1-.023-.031.011-.1.877.4-.025-.058,2.29,1.163,4.317-2.287,2.019-3.454Z"/><path class="h" d="M361.09,62.174a92.971,92.971,0,0,0,.888-13.09c.071-8.44-3.07-18.132-8.277-23.805-2.613-2.848-2.393-2.937-6.369-5.336-6.173-3.205-11.626-5.639-20.829-6.126-11.3-.6-21.57,4.541-26.329,8.295-9.187,7.247-15.04,22.847-13.5,34.368,4.581-1.272,8.6-4.39,12.017-7.65,1.186-1.131,4.076-4.392,5.128-5.653a21.047,21.047,0,0,0,2.3-3.482,7.7,7.7,0,0,0,2.445,3.111c9.432,8.093,30.012,18.457,40.883,20.317a4.07,4.07,0,0,1,2.98-.689,3.862,3.862,0,0,1,2.753,1.881,9,9,0,0,1,.849,2.787,11.208,11.208,0,0,1-1.391,7.145,16.454,16.454,0,0,1-3.428,4.418,19.276,19.276,0,0,1-3.572,2.226l-1.827.711-.269.434a44.125,44.125,0,0,1-10.034,10.933,26.92,26.92,0,0,1-2.541,1.707c.014.108.03.22.046.334.051.343.108.7.172,1.074.35,2.022.242,3.834,3.058,4.845.064.019,1.259.4,2.854.9,3.071.979,7.636,2.429,8.557,2.772,3.442,1.266,6.822,2.359,9.994,3.5l.33-.18a10.6,10.6,0,0,0,6.04-8.22,27.325,27.325,0,0,0-.96-9.57c-1.08-4.26-3.01-12.9-1.97-27.96"/><path class="a" d="M343.629,103.279c-1.5-.483-3.167-1.012-4.534-1.448-1.6-.5-2.79-.883-2.854-.9-2.816-1.011-2.708-2.823-3.058-4.845-.064-.375-.121-.731-.172-1.074-.016-.113-.032-.226-.048-.337a36.808,36.808,0,0,1-12.416,4.3,25.671,25.671,0,0,1-14.178-1.562l-.02.09c-.2.875-.1,2.321-2.917,3.337-.092.033-2.085.976-4.113,1.936,6.037,3.524,13.769,8.64,22.426,8.64,9.577,0,16.245-3.15,22.954-7.8Z"/><path class="h" d="M290.566,106.605c-4.9-3.45-6.92-8.22-7.06-11.67-.422-9.958,4.315-21.444,3.721-33.471C286.992,69.92,288.585,80,293.7,87.338a28.546,28.546,0,0,0,12.67,10.078c-.232.861-.025,2.374-2.939,3.427-.186.067-8.165,3.863-8.449,3.98Z"/><path class="e" d="M304.42,96.975c-.08.37-.166.741-.246,1.11-.058.265.08-.2.1-.227a1.157,1.157,0,0,0-.084.169c-.052.085-.281.39-.067.14.237-.276-.086.082-.145.139a1.793,1.793,0,0,1-.188.17c.038.017.376-.25.007-.022-.16.1-.321.2-.49.282-.107.055-.216.108-.327.156.086-.037.311-.127-.081.022-.2.075-.388.16-.579.246-.244.111-.486.226-.728.34q-2.883,1.355-5.759,2.723c-.618.292-1.232.606-1.862.873a2,2,0,0,0-.717,2.736,2.063,2.063,0,0,0,2.736.718c1.6-.68,3.161-1.488,4.735-2.233q1.425-.675,2.853-1.347c.253-.12.509-.234.761-.356.023-.011.048-.02.071-.032-.88.446-.318.144-.066.041a8.227,8.227,0,0,0,1.535-.756,5.112,5.112,0,0,0,1.886-2.075,8.46,8.46,0,0,0,.51-1.754,2,2,0,1,0-3.857-1.063Z"/><path class="e" d="M348.184,102.675c-3.3-1.214-6.71-2.186-10.065-3.248-.374-.119-.75-.233-1.123-.357a4.059,4.059,0,0,1-.5-.2,3.58,3.58,0,0,1-.607-.37c.3.239-.065-.105-.123-.162.309.3-.078-.149-.145-.255-.238-.373.07.33-.041-.1a30.941,30.941,0,0,1-.837-5.542,2.049,2.049,0,0,0-2-2,2.016,2.016,0,0,0-2,2c.1,1.4.29,2.784.516,4.168a15.343,15.343,0,0,0,.464,2.437A6.285,6.285,0,0,0,336.167,103c3.649,1.158,7.359,2.209,10.954,3.53a2.019,2.019,0,0,0,2.46-1.4,2.041,2.041,0,0,0-1.4-2.46Z"/><path class="a" d="M330.749,95.858a39.915,39.915,0,0,1-10.2,3.12c-10.238,1.856-20.9-3.1-26.846-11.64-6.238-8.948-7.238-21.972-6.082-31.148,4.19-1.414,7.889-4.326,11.074-7.36,1.186-1.131,4.076-4.392,5.128-5.653a21.107,21.107,0,0,0,2.3-3.482,7.7,7.7,0,0,0,2.445,3.111c9.432,8.093,30.012,18.457,40.876,20.309a4.129,4.129,0,0,1,2.987-.681,3.862,3.862,0,0,1,2.753,1.881,9,9,0,0,1,.849,2.787,11.208,11.208,0,0,1-1.391,7.145,16.454,16.454,0,0,1-3.428,4.418,19.276,19.276,0,0,1-3.572,2.226l-1.827.711-.269.434a44.125,44.125,0,0,1-10.034,10.933A27.46,27.46,0,0,1,330.749,95.858Z"/><path class="i" d="M271.988,118.427a26.1,26.1,0,0,1,6.634-5.6c7.158-3.89,12.877-6.865,20.477-10.171,6.069,3.525,13.883,8.766,22.646,8.766,9.844,0,16.615-3.329,23.516-8.188,8.234,3.033,18.353,6.372,23.944,10.468,3.5,2.71,5.938,7.642,6.645,12.765,1.3,14.287-1.031,28.238-5.851,41.9-1.473,4.177-3.29,8.393-6.5,11.439a13.434,13.434,0,0,1-6.278,3.367,72.2,72.2,0,0,0,3.308,9.8l.116.254-101.473-.106.007-.069c1.482-14.713,4.506-46.862,6.46-60.007,0,0,1.61-8.4,4.737-12.644C270.915,119.687,271.456,119.031,271.988,118.427Z"/><path class="e" d="M343.96,101.709a46.646,46.646,0,0,1-9.873,5.5,34.059,34.059,0,0,1-11.455,2.2c-8.34.174-15.383-4.308-22.32-8.367-2.227-1.3-4.242,2.153-2.019,3.454,5.735,3.356,11.52,7,18.124,8.349a34.909,34.909,0,0,0,20.236-2.384,52,52,0,0,0,9.325-5.3c2.1-1.459.1-4.928-2.018-3.454Z"/><path class="e" d="M377.778,125.932a23.407,23.407,0,0,0-3.87-10.074,20.459,20.459,0,0,0-7.333-6.145c-6.491-3.506-13.615-5.782-20.519-8.317-2.42-.888-3.464,2.976-1.063,3.857,6.358,2.335,12.883,4.433,18.908,7.567,2.5,1.3,4.894,2.721,6.553,5.056a20.842,20.842,0,0,1,3.467,9.12,2.014,2.014,0,0,0,2.46,1.4,2.052,2.052,0,0,0,1.4-2.461Z"/><path class="e" d="M355.433,184.264A89.944,89.944,0,0,0,358.6,193.5a2.045,2.045,0,0,0,2.46,1.4,2.022,2.022,0,0,0,1.4-2.46,90.109,90.109,0,0,1-3.163-9.237,2,2,0,0,0-3.857,1.063Z"/><path class="e" d="M281.29,131.055q-.459,9.125-.577,18.263c-.042,3.448-.085,6.875.175,10.313.553,7.305,1.364,14.593,2.168,21.873q.635,5.736,1.325,11.466a2.063,2.063,0,0,0,2,2,2.012,2.012,0,0,0,2-2q-1.338-10.936-2.435-21.9a177.478,177.478,0,0,1-1.256-19.284q.072-10.371.6-20.731c.13-2.573-3.87-2.566-4,0Z"/><path class="e" d="M261.174,193.049c1.424-14.147,2.758-28.3,4.307-42.436.627-5.712,1.086-11.6,2.1-17.115a43.708,43.708,0,0,1,2.1-7.4,22.891,22.891,0,0,1,6.808-9.321c3.133-2.7,7.137-4.408,10.784-6.29q7.126-3.679,14.5-6.823a2.011,2.011,0,0,0,.717-2.736,2.052,2.052,0,0,0-2.736-.717q-6.707,2.864-13.214,6.16-3.106,1.581-6.174,3.238a40.209,40.209,0,0,0-4.526,2.618,27.725,27.725,0,0,0-8.416,9.141,41.006,41.006,0,0,0-3.4,9.67,60.838,60.838,0,0,0-.964,6.127c-.427,3.278-.811,6.561-1.182,9.845-.869,7.69-1.659,15.389-2.432,23.09-.768,7.65-1.507,15.3-2.277,22.952a2.014,2.014,0,0,0,2,2,2.044,2.044,0,0,0,2-2Z"/><path class="e" d="M343.753,15.965a47.522,47.522,0,0,0-17.7-4.169A42.89,42.89,0,0,0,306.9,15.821,33.86,33.86,0,0,0,294.766,24.6a44.353,44.353,0,0,0-8.128,14.9,39.218,39.218,0,0,0-1.767,18.333,2.014,2.014,0,0,0,2.46,1.4,2.048,2.048,0,0,0,1.4-2.46A33.817,33.817,0,0,1,289.965,42.3a41.675,41.675,0,0,1,6.663-13.67c6.059-8.037,16.83-12.468,26.741-12.835a41.479,41.479,0,0,1,18.366,3.625,2.063,2.063,0,0,0,2.736-.718,2.015,2.015,0,0,0-.718-2.736Z"/><path class="e" d="M363.019,62.706a73.613,73.613,0,0,0,.877-9.767,55.191,55.191,0,0,0-.182-8.48c-.79-6.622-2.964-13.365-7.046-18.714a27.11,27.11,0,0,0-6.9-6.651c-2.179-1.385-4.188,2.076-2.019,3.454a23.1,23.1,0,0,1,6.614,6.836A34.429,34.429,0,0,1,358.9,40.113a40.8,40.8,0,0,1,1.061,10.625,73.792,73.792,0,0,1-.794,10.905,2.059,2.059,0,0,0,1.4,2.46,2.016,2.016,0,0,0,2.46-1.4Z"/><path class="e" d="M284.867,57.836c1.174,7.6-.356,15.219-1.754,22.673a91.624,91.624,0,0,0-1.544,10.614,19.147,19.147,0,0,0,.982,8.57,19.739,19.739,0,0,0,7,8.639,2.017,2.017,0,0,0,2.737-.718,2.044,2.044,0,0,0-.718-2.736,14.545,14.545,0,0,1-5.909-8.652c-.746-3.587.092-7.775.7-11.348,1.6-9.352,3.826-18.573,2.353-28.1a2.015,2.015,0,0,0-2.46-1.4,2.05,2.05,0,0,0-1.4,2.46Z"/><path class="e" d="M285.471,57.476c-1.158,12.01,1,25.823,9.714,34.784a30.046,30.046,0,0,0,16.229,8.671c6.406,1.089,13.035-.2,18.967-2.728,6.993-2.983,12.873-8.77,16.886-15.157,1.373-2.186-2.086-4.2-3.454-2.019A35.841,35.841,0,0,1,330.6,93.7a31.144,31.144,0,0,1-16.991,3.53A25.733,25.733,0,0,1,299.1,90.488a29.793,29.793,0,0,1-8.317-14.581,52.682,52.682,0,0,1-1.309-18.431,2.014,2.014,0,0,0-2-2,2.043,2.043,0,0,0-2,2Z"/><path class="e" d="M350.555,64.764a1.978,1.978,0,0,1,3.153,1.192c.084.254.161.512.226.772,0-.016.139.711.093.374a12.127,12.127,0,0,1,.07,1.513,7.823,7.823,0,0,1-.333,2.594,13.605,13.605,0,0,1-2.669,4.732,11.537,11.537,0,0,1-.966,1.024,7.544,7.544,0,0,1-.8.609c-.411.287-.83.564-1.258.826-.222.135-.446.268-.674.392-.06.032-.631.311-.293.17a2.066,2.066,0,0,0-1.4,2.46,2.011,2.011,0,0,0,2.46,1.4c4.873-2.033,9.04-6.809,9.786-12.135.367-2.621.192-5.829-1.484-8.01a6.09,6.09,0,0,0-8.744-.739,2.014,2.014,0,0,0,0,2.829,2.048,2.048,0,0,0,2.829,0Z"/><path class="e" d="M316.039,83.649a4.628,4.628,0,0,1-.507.335c-.114.064-.231.119-.346.178-.284.144.186-.068.223-.09a1.548,1.548,0,0,1-.24.093,7.169,7.169,0,0,1-1.067.293c-.095.019-.192.03-.286.051-.181.039.509-.056.04-.006-.249.027-.5.044-.748.053a13.151,13.151,0,0,1-1.719-.055c-.391-.036.274.055.037,0-.106-.023-.215-.038-.321-.062a5.557,5.557,0,0,1-.67-.19c-.078-.027-.385-.15-.049-.012s.049.017-.026-.02c-.147-.074-.289-.155-.428-.242-.262-.164-.508-.352-.754-.539a2,2,0,0,0-1.541-.2,2.037,2.037,0,0,0-1.195.919,2.06,2.06,0,0,0,.717,2.736,8.976,8.976,0,0,0,5.949,1.664,8.781,8.781,0,0,0,4.95-1.454,2.188,2.188,0,0,0,.919-1.2,2.042,2.042,0,0,0-.2-1.541,2.021,2.021,0,0,0-2.737-.717Z"/><path class="e" d="M309.848,71.94c-.265.808-.513,1.626-.705,2.454a4.355,4.355,0,0,0-.154,1.122,2.566,2.566,0,0,0,1.156,2.1,2.868,2.868,0,0,0,1.132.471,3.6,3.6,0,0,0,.78.077c.251-.017.5-.063.751-.1l-.532.071c.056-.007.111-.014.166-.018a2.138,2.138,0,0,0,1.415-.586,2,2,0,0,0,0-2.828,1.977,1.977,0,0,0-1.415-.586c-.245.018-.49.061-.732.094l.531-.071a1.836,1.836,0,0,1-.432.015l.532.071a1.456,1.456,0,0,1-.338-.091l.477.2a1.665,1.665,0,0,1-.316-.178l.405.313a.454.454,0,0,1-.062-.062l.313.4a.61.61,0,0,1-.063-.111l.2.477a.816.816,0,0,1-.034-.129l.071.532a1.349,1.349,0,0,1,.007-.336l-.071.531a12.278,12.278,0,0,1,.361-1.434c.13-.449.266-.9.412-1.342a2,2,0,0,0-2.938-2.259,2.175,2.175,0,0,0-.919,1.195Z"/><path class="a" d="M324.319,137.877c-.1.075-.2.148-.292.221l-.427-1.634c-.762-2.911-2.549-9.694-3.411-11.834-1.087-2.7-3.335-5.71-4.1-8.518a8.529,8.529,0,0,1-.4-3.8,11.513,11.513,0,0,1,4-6.17c2.576-2.074,5.233-3.876,6.92-5.938a16.342,16.342,0,0,0,1.114-2.039c2.467-5.507,3.836-9.973,4.916-12.07.676-1.313,3.518-5.893,5.293-5.052a1.743,1.743,0,0,1,.78.836,39.589,39.589,0,0,1,2.363-4.257,3.631,3.631,0,0,1,3.46-1.193c2.307,1.034,2.484,4.723,2.228,7.4-.311,3.241-.7,7.714-1.154,11.456-.753,6.162-1.689,10.7-3.725,13.126a46.132,46.132,0,0,1-6.739,8.465,3.1,3.1,0,0,0-.8,1.081c.123,2.145,4.673,8.691,5.82,10.341l.34.49C335.044,131.582,327.641,135.409,324.319,137.877Z"/><path class="e" d="M329.826,66.319c.4,1.629-.147,5.288-3.2,5.419-4-.266-3.948-4.727-2.474-6.737C325.364,63.356,328.652,62.84,329.826,66.319Z"/><path class="e" d="M304.84,63.819c.424,1.568.087,5.151-2.653,5.408-3.616-.088-3.751-4.431-2.507-6.449C300.7,61.126,303.639,60.484,304.84,63.819Z"/><path class="e" d="M341.891,127.283c-1.078-1.551-2.136-3.117-3.131-4.722-.578-.932-1.141-1.876-1.646-2.85-.158-.3-.492-1-.53-1.1-.072-.187-.124-.381-.193-.568-.048-.131-.1-.638-.047-.091l-.274,1.01a11.025,11.025,0,0,1,2.066-2.329q1.114-1.215,2.14-2.507c1.276-1.611,2.354-3.35,3.564-5,2.1-2.868,2.745-6.726,3.268-10.155.7-4.585,1.1-9.211,1.529-13.827.305-3.261.645-7.55-2.21-9.859-2.008-1.623-5.13-.958-6.768.921-1.241,1.424-1.874,3.287-2.818,4.9-1.3,2.226,2.152,4.241,3.454,2.018.451-.771.831-1.582,1.244-2.373.4-.766.784-1.883,1.625-2.259.659-.3.882-.163,1.2.5a6.6,6.6,0,0,1,.484,2.617,57.876,57.876,0,0,1-.541,7.1c-.251,2.633-.507,5.268-.862,7.889a43.235,43.235,0,0,1-1.473,7.263,18.052,18.052,0,0,1-2.5,4.606,43.761,43.761,0,0,1-4.611,5.829,9.344,9.344,0,0,0-2.34,2.892,3.591,3.591,0,0,0,.211,2.492c1.3,3.47,3.61,6.607,5.71,9.629,1.459,2.1,4.928.1,3.454-2.019Z"/><path class="e" d="M337.354,99.013c.758-2.376,1.45-4.774,2.157-7.165.674-2.276,1.6-4.6,1.676-7,.084-2.526-.923-6.352-4.209-5.86-2.5.375-4.29,3.12-5.5,5.1a38.885,38.885,0,0,0-2.833,6.562c-1.291,3.389-2.363,7.35-5.108,9.847-2.827,2.572-6.246,4.42-8.307,7.744a9.573,9.573,0,0,0-1.615,5.334,14.99,14.99,0,0,0,1.433,5.4c.863,1.924,2.02,3.7,2.939,5.592a23.552,23.552,0,0,1,1.258,3.573c.875,2.932,1.654,5.894,2.429,8.855.652,2.488,4.511,1.433,3.857-1.064-1.2-4.573-2.134-9.5-4.27-13.745-1.375-2.734-3.827-5.8-3.654-9.032.168-3.117,3.1-5.312,5.338-7.045a43.96,43.96,0,0,0,4.018-3.342,13.59,13.59,0,0,0,2.88-4.482c1.281-2.937,2.4-5.934,3.557-8.921a19.14,19.14,0,0,1,2.578-4.806,10.434,10.434,0,0,1,.782-.913c.058-.06.94-.778.941-.766.007.105-.435.04-.463.026-.706-.356-.285-.321-.282-.081,0,.286.2.767.224,1.128.174,2.251-.847,4.547-1.477,6.678-.723,2.442-1.429,4.891-2.2,7.318-.784,2.458,3.076,3.511,3.857,1.064Z"/><path class="e" d="M304.39,40.705c1.216,2.86,4.227,4.8,6.66,6.573,2.661,1.936,5.446,3.7,8.285,5.361a133.7,133.7,0,0,0,18.954,9.217,62.936,62.936,0,0,0,9.371,2.953c2.509.547,3.581-3.308,1.063-3.857a78.339,78.339,0,0,1-16.548-6.064,125.335,125.335,0,0,1-17.243-9.751c-1.281-.876-2.547-1.781-3.759-2.753a9.972,9.972,0,0,1-3.329-3.7,2.011,2.011,0,0,0-2.736-.718,2.054,2.054,0,0,0-.718,2.737Z"/><path class="e" d="M328.737,34.777a52.831,52.831,0,0,1,8.875,6.762,36.29,36.29,0,0,1,6.867,8.292c1.226,2.264,4.681.247,3.454-2.019a39.862,39.862,0,0,0-7.493-9.1,58.846,58.846,0,0,0-9.684-7.388,2,2,0,0,0-2.019,3.454Z"/><path class="e" d="M347.007,36.645A33.417,33.417,0,0,1,351.163,52.6c.016,2.573,4.016,2.578,4,0a37.7,37.7,0,0,0-4.7-17.977c-1.244-2.254-4.7-.238-3.453,2.019Z"/><path class="e" d="M304.631,38.2c-1.518,3.154-4.025,5.737-6.41,8.253a31.723,31.723,0,0,1-10.3,7.509A2.013,2.013,0,0,0,287.2,56.7a2.052,2.052,0,0,0,2.736.717,34.584,34.584,0,0,0,11.11-8.135c2.6-2.746,5.379-5.623,7.035-9.062a2.053,2.053,0,0,0-.718-2.736,2.017,2.017,0,0,0-2.736.717Z"/><path class="e" d="M358.985,109.652a12.89,12.89,0,0,0,6.782-8.256c.886-3.882.132-8.142-.818-11.933a71.89,71.89,0,0,1-2.022-13.642,112.764,112.764,0,0,1,.159-13.646c.172-2.57-3.828-2.559-4,0a101.839,101.839,0,0,0,.5,20.557c.276,2.028.63,4.044,1.084,6.039A40.835,40.835,0,0,1,362.1,97.02a9.952,9.952,0,0,1-1.028,5.434,9.693,9.693,0,0,1-4.1,3.744c-2.294,1.168-.272,4.62,2.019,3.454Z"/><path class="e" d="M373.85,126.464a96.523,96.523,0,0,1-4.712,38.213c-1.685,5.218-3.63,11.617-8.445,14.834a10.087,10.087,0,0,1-6.719,1.87c-2.288-.287-4.4-1.862-6.182-3.221-7.448-5.684-11.9-14.325-16.15-22.478-1.926-3.695-3.768-7.444-5.407-11.276-.444-1.036-.993-2.379-1.381-3.584-.118-.367-.175-.773-.31-1.131-.094-.249.011.584.025.108-.014.478-.083.572-.046.368-.219,1.208-.05-.065,0,.1.017.051-.35.374-.1.144.117-.1.222-.226.337-.333.094-.088.721-.6.439-.381.7-.54,1.45-1.021,2.2-1.492,1.88-1.183,3.824-2.266,5.775-3.327,4-2.175,8.075-4.21,12.115-6.311l-2.736-.718A168.88,168.88,0,0,1,354,148.036c1.113,2.32,4.563.294,3.454-2.019a169.018,169.018,0,0,0-11.436-20.19,2.052,2.052,0,0,0-2.737-.717c-3.852,2-7.735,3.946-11.557,6.009-3.3,1.781-7.008,3.546-9.779,6.127-2.018,1.88-1.233,3.994-.367,6.244,1.51,3.925,3.337,7.737,5.224,11.492,2.275,4.53,4.7,8.993,7.366,13.307a46.713,46.713,0,0,0,9.443,11.6,29.927,29.927,0,0,0,6.422,4.4,12.011,12.011,0,0,0,8.395.646c6.25-1.739,9.969-7.223,12.319-12.915a98.439,98.439,0,0,0,7.108-45.557,2.054,2.054,0,0,0-2-2,2.015,2.015,0,0,0-2,2Z"/><path class="e" d="M1.932,195.156c7.364,0,14.728.033,22.093.034,2.573,0,2.578-4,0-4-7.365,0-14.729-.033-22.093-.034-2.574,0-2.578,4,0,4Z"/><path class="e" d="M120.525,194.912c12.258,0,24.517.11,36.775.152q5.334.018,10.669.021c2.574,0,2.578-4,0-4-13.29,0-26.58-.1-39.87-.152q-3.787-.015-7.574-.021c-2.574,0-2.579,4,0,4Z"/><path class="e" d="M225.921,191.086c-9.7-.018-19.411-.006-29.116-.041-2.574-.009-2.578,3.991,0,4,9.7.035,19.411.023,29.116.041,2.574,0,2.578-4,0-4Z"/><path class="e" d="M246.764,195.105l78.59.058q22.305.017,44.611.034,5.169,0,10.337.006c2.574,0,2.578-4,0-4q-12.961,0-25.923-.018l-59.428-.045-48.187-.035c-2.574,0-2.578,4,0,4Z"/></svg>